<?xml version="1.0" encoding="utf-8"?>
<!-- Generator: Adobe Illustrator 16.0.0, SVG Export Plug-In . SVG Version: 6.00 Build 0)  -->
<!DOCTYPE svg PUBLIC "-//W3C//DTD SVG 1.1//EN" "http://www.w3.org/Graphics/SVG/1.1/DTD/svg11.dtd">
<svg version="1.1" id="Layer_1" xmlns="http://www.w3.org/2000/svg" xmlns:xlink="http://www.w3.org/1999/xlink" x="0px" y="0px"
	 width="432px" height="216px" viewBox="0 0 432 216" enable-background="new 0 0 432 216" xml:space="preserve">
<g>
	<g>
		<path fill="#1C75BC" d="M107.404,88.791l-8.556-1.554c0.959-3.509,2.617-6.104,4.964-7.789c2.345-1.685,5.829-2.53,10.462-2.53
			c4.202,0,7.33,0.508,9.387,1.516c2.058,1.012,3.504,2.295,4.34,3.849c0.842,1.554,1.26,4.409,1.26,8.558l-0.124,11.164
			c0,3.176,0.149,5.519,0.451,7.03c0.302,1.512,0.858,3.123,1.679,4.848h-9.33c-0.249-0.637-0.549-1.58-0.905-2.828
			c-0.159-0.57-0.271-0.947-0.337-1.129c-1.604,1.594-3.324,2.787-5.158,3.582c-1.829,0.795-3.781,1.195-5.858,1.195
			c-3.658,0-6.541-1.008-8.65-3.027c-2.11-2.021-3.162-4.572-3.162-7.656c0-2.046,0.477-3.862,1.439-5.46
			c0.96-1.602,2.302-2.826,4.036-3.678c1.73-0.851,4.224-1.59,7.482-2.228c4.4-0.839,7.445-1.62,9.146-2.347v-0.955
			c0-1.84-0.444-3.145-1.337-3.93c-0.891-0.781-2.573-1.172-5.048-1.172c-1.673,0-2.974,0.336-3.91,1.006
			S107.983,87.106,107.404,88.791 M119.97,96.527c-1.207,0.409-3.116,0.896-5.727,1.461c-2.611,0.57-4.316,1.121-5.119,1.667
			c-1.231,0.886-1.843,2.006-1.843,3.363c0,1.338,0.489,2.494,1.472,3.469c0.984,0.975,2.233,1.459,3.748,1.459
			c1.697,0,3.317-0.566,4.856-1.697c1.14-0.863,1.886-1.913,2.245-3.159c0.244-0.817,0.368-2.371,0.368-4.66V96.527z"/>
		<path fill="#1C75BC" d="M144.955,113.881h-9.417V77.74h8.764v5.141c1.491-2.428,2.834-4.029,4.031-4.803
			c1.192-0.771,2.546-1.159,4.062-1.159c2.143,0,4.206,0.603,6.19,1.81l-2.926,8.354c-1.582-1.043-3.055-1.568-4.414-1.568
			c-1.316,0-2.432,0.371-3.347,1.106c-0.915,0.74-1.632,2.07-2.159,3.998c-0.52,1.928-0.784,5.963-0.784,12.109V113.881z"/>
		<path fill="#1C75BC" d="M191.096,88.422l-9.291,1.72c-0.313-1.885-1.026-3.304-2.135-4.26c-1.104-0.955-2.542-1.43-4.309-1.43
			c-2.351,0-4.223,0.822-5.622,2.466c-1.4,1.649-2.099,4.399-2.099,8.259c0,4.29,0.713,7.321,2.129,9.092
			c1.421,1.771,3.326,2.655,5.72,2.655c1.786,0,3.254-0.516,4.39-1.549c1.14-1.035,1.948-2.808,2.418-5.326l9.25,1.592
			c-0.962,4.309-2.803,7.562-5.528,9.763c-2.724,2.199-6.378,3.297-10.953,3.297c-5.204,0-9.352-1.668-12.447-5.004
			c-3.09-3.333-4.639-7.952-4.639-13.852c0-5.97,1.554-10.613,4.658-13.939c3.107-3.322,7.31-4.987,12.604-4.987
			c4.333,0,7.782,0.948,10.34,2.845C188.14,81.656,189.979,84.543,191.096,88.422"/>
		<path fill="#1C75BC" d="M283.2,113.881h-8.756v-5.308c-1.453,2.062-3.169,3.601-5.143,4.613c-1.976,1.012-3.969,1.516-5.979,1.516
			c-4.085,0-7.588-1.672-10.505-5.021c-2.911-3.345-4.37-8.014-4.37-14.006c0-6.127,1.421-10.783,4.262-13.971
			c2.836-3.188,6.421-4.785,10.756-4.785c3.976,0,7.416,1.683,10.324,5.041V63.986h9.41V113.881z M258.111,95.026
			c0,3.853,0.522,6.64,1.572,8.363c1.517,2.492,3.635,3.741,6.353,3.741c2.164,0,4.002-0.938,5.52-2.806
			c1.513-1.87,2.271-4.663,2.271-8.382c0-4.148-0.736-7.134-2.204-8.958c-1.474-1.823-3.359-2.735-5.654-2.735
			c-2.228,0-4.097,0.896-5.601,2.703C258.861,88.753,258.111,91.444,258.111,95.026"/>
		<path fill="#1C75BC" d="M289.947,63.986h9.415v8.842h-9.415V63.986z M289.947,77.74h9.415v36.141h-9.415V77.74z"/>
		<path fill="#1C75BC" d="M313.573,88.791l-8.556-1.554c0.959-3.509,2.615-6.104,4.962-7.789c2.344-1.685,5.836-2.53,10.462-2.53
			c4.204,0,7.333,0.508,9.389,1.516c2.057,1.012,3.501,2.295,4.342,3.849c0.838,1.554,1.259,4.409,1.259,8.558l-0.121,11.164
			c0,3.176,0.146,5.519,0.444,7.03c0.299,1.512,0.861,3.123,1.683,4.848h-9.332c-0.245-0.637-0.551-1.58-0.905-2.828
			c-0.156-0.57-0.269-0.947-0.333-1.129c-1.608,1.594-3.326,2.787-5.155,3.582c-1.834,0.795-3.787,1.195-5.86,1.195
			c-3.66,0-6.543-1.008-8.652-3.027c-2.11-2.021-3.164-4.572-3.164-7.656c0-2.046,0.478-3.862,1.439-5.46
			c0.959-1.602,2.309-2.826,4.037-3.678c1.73-0.851,4.225-1.59,7.482-2.228c4.4-0.839,7.448-1.62,9.146-2.347v-0.955
			c0-1.84-0.447-3.145-1.339-3.93c-0.891-0.781-2.571-1.172-5.047-1.172c-1.673,0-2.974,0.336-3.91,1.006
			C314.909,85.925,314.153,87.106,313.573,88.791 M326.14,96.527c-1.207,0.409-3.114,0.896-5.726,1.461
			c-2.613,0.57-4.318,1.121-5.124,1.667c-1.227,0.886-1.84,2.006-1.84,3.363c0,1.338,0.49,2.494,1.472,3.469
			c0.982,0.975,2.233,1.459,3.751,1.459c1.693,0,3.314-0.566,4.856-1.697c1.137-0.863,1.885-1.913,2.239-3.159
			c0.247-0.817,0.371-2.371,0.371-4.66V96.527z"/>
	</g>
	<g>
		<path fill="#9FCC3E" d="M190.521,117.195c0,0,1.275-27.854,29.603-55.41c19.345,14.468,31.363,57.984,29.709,54.937
			c-6.911-12.746-16.925-26.866-16.925-26.866s-10.713,5.338-13.131,10.85c0.517-6.717,5.526-18.771,5.526-18.771
			C206.821,89.171,190.521,117.195,190.521,117.195"/>
		<polygon fill="#9FCC3E" points="97.537,122.963 100.311,122.963 100.311,128.566 105.655,128.566 105.655,122.963 
			108.456,122.963 108.456,137.156 105.655,137.156 105.655,131.016 100.311,131.016 100.311,137.156 97.537,137.156 		"/>
		<polygon fill="#9FCC3E" points="111.35,122.963 120.869,122.963 120.869,125.43 114.142,125.43 114.142,128.557 118.243,128.557 
			118.243,130.662 114.142,130.662 114.142,134.707 120.869,134.707 120.869,137.156 111.35,137.156 		"/>
		<path fill="#9FCC3E" d="M126.592,122.961h2.961l4.622,14.195h-2.746l-1.078-3.33h-4.537l-1.075,3.33h-2.746L126.592,122.961z
			 M128.079,126.803l-1.627,4.953h3.23L128.079,126.803z"/>
		<polygon fill="#9FCC3E" points="136.052,122.963 138.826,122.963 138.826,134.707 144.689,134.707 144.689,137.156 
			136.052,137.156 		"/>
		<polygon fill="#9FCC3E" points="144.195,122.963 154.958,122.963 154.958,125.402 150.958,125.402 150.958,137.156 
			148.175,137.156 148.175,125.402 144.195,125.402 		"/>
		<polygon fill="#9FCC3E" points="157.191,122.963 159.965,122.963 159.965,128.566 165.31,128.566 165.31,122.963 168.11,122.963 
			168.11,137.156 165.31,137.156 165.31,131.016 159.965,131.016 159.965,137.156 157.191,137.156 		"/>
		<path fill="#9FCC3E" d="M182.08,133.092c-0.197,0.799-0.447,1.434-0.75,1.902c-0.488,0.762-1.121,1.359-1.898,1.791
			c-0.776,0.432-1.674,0.65-2.696,0.65c-1.088,0-2.127-0.275-3.116-0.822c-0.99-0.547-1.741-1.365-2.254-2.453
			c-0.514-1.088-0.77-2.373-0.77-3.85c0-1.541,0.261-2.902,0.783-4.082c0.523-1.182,1.282-2.068,2.278-2.658
			c0.996-0.592,2.044-0.887,3.146-0.887c0.81,0,1.603,0.18,2.379,0.539c0.775,0.357,1.418,0.865,1.925,1.52
			c0.352,0.459,0.633,1.064,0.844,1.82l-2.598,0.742c-0.185-0.768-0.515-1.348-0.988-1.74c-0.472-0.393-1.041-0.59-1.703-0.59
			c-0.988,0-1.759,0.48-2.309,1.438c-0.551,0.959-0.826,2.213-0.826,3.758c0,0.979,0.127,1.834,0.381,2.57
			c0.253,0.736,0.603,1.279,1.048,1.627c0.445,0.35,0.927,0.525,1.446,0.525c0.78,0,1.477-0.281,2.088-0.844
			c0.434-0.391,0.774-0.953,1.022-1.689L182.08,133.092z"/>
		<path fill="#9FCC3E" d="M187.638,122.961h2.962l4.621,14.195h-2.746l-1.078-3.33h-4.538l-1.074,3.33h-2.746L187.638,122.961z
			 M189.125,126.803l-1.627,4.953h3.23L189.125,126.803z"/>
		<path fill="#9FCC3E" d="M197.189,122.963h3.831c2.06,0,3.484,0.154,4.273,0.463c0.788,0.309,1.402,0.82,1.842,1.531
			c0.438,0.711,0.658,1.527,0.658,2.449c0,0.846-0.199,1.547-0.594,2.102c-0.396,0.553-1.082,1.027-2.06,1.424l2.553,6.225h-2.766
			l-2.38-5.705h-2.556v5.705h-2.801V122.963z M199.991,125.439v3.822h2.236c0.817,0,1.512-0.232,2.088-0.697
			c0.377-0.309,0.566-0.738,0.566-1.289c0-0.525-0.21-0.963-0.631-1.313c-0.421-0.35-1.095-0.523-2.023-0.523H199.991z"/>
		<polygon fill="#9FCC3E" points="210.352,122.963 219.871,122.963 219.871,125.43 213.144,125.43 213.144,128.557 217.246,128.557 
			217.246,130.662 213.144,130.662 213.144,134.707 219.871,134.707 219.871,137.156 210.352,137.156 		"/>
		<path fill="#9FCC3E" d="M229.915,133.186c0.471,0.725,0.933,1.229,1.388,1.512c0.454,0.285,0.991,0.428,1.608,0.428
			c0.742,0,1.32-0.184,1.735-0.553c0.414-0.367,0.622-0.803,0.622-1.305c0-0.438-0.165-0.824-0.493-1.158
			c-0.334-0.334-1.079-0.654-2.234-0.965c-1.577-0.414-2.706-0.922-3.387-1.521c-0.847-0.754-1.271-1.689-1.271-2.801
			c0-1.195,0.424-2.184,1.271-2.965c0.848-0.783,2.011-1.174,3.489-1.174c0.84,0,1.59,0.141,2.249,0.422s1.216,0.643,1.674,1.082
			c0.297,0.289,0.594,0.689,0.892,1.195l-2.339,0.955c-0.395-0.561-0.801-0.973-1.215-1.232c-0.415-0.26-0.876-0.391-1.383-0.391
			c-0.625,0-1.124,0.176-1.498,0.525c-0.375,0.348-0.561,0.771-0.561,1.266c0,0.396,0.153,0.736,0.464,1.021
			c0.302,0.283,1.063,0.578,2.282,0.881c1.219,0.303,2.142,0.656,2.769,1.057c0.627,0.402,1.098,0.926,1.411,1.568
			c0.311,0.643,0.467,1.305,0.467,1.984c0,0.719-0.2,1.439-0.602,2.162c-0.402,0.725-0.999,1.281-1.79,1.67
			c-0.792,0.391-1.701,0.584-2.729,0.584c-0.97,0-1.813-0.16-2.526-0.486c-0.716-0.324-1.319-0.762-1.814-1.313
			c-0.322-0.352-0.646-0.844-0.974-1.475L229.915,133.186z"/>
		<path fill="#9FCC3E" d="M245.74,122.684c1.336,0,2.412,0.223,3.228,0.668c1.071,0.582,1.888,1.416,2.449,2.504
			c0.563,1.09,0.845,2.52,0.845,4.287c0,2.4-0.565,4.215-1.697,5.445c-1.133,1.23-2.629,1.846-4.49,1.846
			c-1.88,0-3.401-0.625-4.561-1.879c-1.159-1.252-1.739-3.08-1.739-5.486c0-1.447,0.234-2.746,0.705-3.896
			c0.254-0.637,0.642-1.23,1.165-1.781c0.521-0.551,1.132-0.973,1.826-1.266C244.167,122.83,244.923,122.684,245.74,122.684
			 M246.019,125.113c-0.959,0-1.75,0.385-2.375,1.15c-0.625,0.768-0.938,2.037-0.938,3.805c0,1.738,0.318,2.986,0.952,3.748
			c0.633,0.762,1.446,1.141,2.435,1.141c0.941,0,1.724-0.379,2.349-1.137c0.624-0.758,0.936-1.998,0.936-3.725
			c0-1.93-0.379-3.287-1.141-4.072C247.648,125.418,246.909,125.113,246.019,125.113"/>
		<polygon fill="#9FCC3E" points="254.69,122.963 257.465,122.963 257.465,134.707 263.329,134.707 263.329,137.156 254.69,137.156 
					"/>
		<path fill="#9FCC3E" d="M264.31,122.963h2.803v8.664c0,1.082,0.25,1.893,0.751,2.432c0.501,0.537,1.181,0.807,2.041,0.807
			c0.551,0,1.039-0.107,1.466-0.326c0.426-0.215,0.768-0.568,1.025-1.057c0.256-0.488,0.385-1.107,0.385-1.855v-8.664h2.81v9.072
			c0,1.732-0.472,3.064-1.419,3.998c-0.946,0.936-2.332,1.402-4.156,1.402c-1.052,0-2.031-0.168-2.939-0.502
			c-0.483-0.18-0.885-0.414-1.207-0.705c-0.446-0.408-0.817-0.93-1.114-1.564c-0.297-0.633-0.444-1.484-0.444-2.555V122.963z"/>
		<polygon fill="#9FCC3E" points="277.741,122.963 288.504,122.963 288.504,125.402 284.506,125.402 284.506,137.156 
			281.722,137.156 281.722,125.402 277.741,125.402 		"/>
		<rect x="290.942" y="122.963" fill="#9FCC3E" width="2.783" height="14.193"/>
		<path fill="#9FCC3E" d="M302.379,122.684c1.336,0,2.412,0.223,3.228,0.668c1.071,0.582,1.888,1.416,2.449,2.504
			c0.563,1.09,0.845,2.52,0.845,4.287c0,2.4-0.565,4.215-1.697,5.445c-1.133,1.23-2.63,1.846-4.49,1.846
			c-1.88,0-3.401-0.625-4.561-1.879c-1.159-1.252-1.739-3.08-1.739-5.486c0-1.447,0.234-2.746,0.705-3.896
			c0.254-0.637,0.642-1.23,1.164-1.781s1.133-0.973,1.827-1.266C300.806,122.83,301.562,122.684,302.379,122.684 M302.656,125.113
			c-0.959,0-1.75,0.385-2.375,1.15c-0.625,0.768-0.938,2.037-0.938,3.805c0,1.738,0.318,2.986,0.952,3.748
			c0.633,0.762,1.446,1.141,2.435,1.141c0.941,0,1.724-0.379,2.349-1.137c0.624-0.758,0.936-1.998,0.936-3.725
			c0-1.93-0.379-3.287-1.141-4.072C304.287,125.418,303.548,125.113,302.656,125.113"/>
		<polygon fill="#9FCC3E" points="311.357,122.963 314.309,122.963 320.134,132.49 320.134,122.963 322.898,122.963 
			322.898,137.156 320.134,137.156 314.15,127.258 314.15,137.156 311.357,137.156 		"/>
		<path fill="#9FCC3E" d="M327.869,133.186c0.471,0.725,0.933,1.229,1.388,1.512c0.454,0.285,0.991,0.428,1.608,0.428
			c0.742,0,1.32-0.184,1.735-0.553c0.414-0.367,0.622-0.803,0.622-1.305c0-0.438-0.165-0.824-0.493-1.158
			c-0.334-0.334-1.079-0.654-2.234-0.965c-1.577-0.414-2.706-0.922-3.387-1.521c-0.847-0.754-1.271-1.689-1.271-2.801
			c0-1.195,0.424-2.184,1.271-2.965c0.848-0.783,2.011-1.174,3.489-1.174c0.84,0,1.59,0.141,2.249,0.422s1.216,0.643,1.674,1.082
			c0.297,0.289,0.594,0.689,0.892,1.195l-2.339,0.955c-0.395-0.561-0.801-0.973-1.215-1.232c-0.415-0.26-0.876-0.391-1.383-0.391
			c-0.625,0-1.124,0.176-1.498,0.525c-0.375,0.348-0.561,0.771-0.561,1.266c0,0.396,0.153,0.736,0.464,1.021
			c0.302,0.283,1.063,0.578,2.282,0.881c1.219,0.303,2.142,0.656,2.769,1.057c0.627,0.402,1.098,0.926,1.411,1.568
			c0.311,0.643,0.467,1.305,0.467,1.984c0,0.719-0.2,1.439-0.602,2.162c-0.402,0.725-0.999,1.281-1.79,1.67
			c-0.792,0.391-1.701,0.584-2.729,0.584c-0.97,0-1.813-0.16-2.526-0.486c-0.716-0.324-1.319-0.762-1.814-1.313
			c-0.322-0.352-0.646-0.844-0.974-1.475L327.869,133.186z"/>
	</g>
</g>
</svg>
