<?xml version="1.0" encoding="utf-8"?>
<!-- Generator: Adobe Illustrator 22.0.1, SVG Export Plug-In . SVG Version: 6.00 Build 0)  -->
<svg version="1.1" id="Layer_1" xmlns="http://www.w3.org/2000/svg" xmlns:xlink="http://www.w3.org/1999/xlink" x="0px" y="0px"
	 viewBox="0 0 1200 230" style="enable-background:new 0 0 1200 230;" xml:space="preserve">
<style type="text/css">
	.st0{fill-rule:evenodd;clip-rule:evenodd;fill:#FFFFFF;}
</style>
<g id="arcadia.io_2_">
	<path class="st0" d="M1151,129.6c0,11.1-4.3,21.1-11.2,28.7l-5-10.7c3.5-5.1,5.6-11.3,5.6-17.9c0-17.4-14.1-31.6-31.6-31.6
		s-31.6,14.1-31.6,31.6s14.1,31.6,31.6,31.6c4.3,0,8.3-0.8,12.1-2.4l4.5,9.7c-5.1,2.2-10.7,3.4-16.6,3.4
		c-23.3,0-42.2-18.9-42.2-42.2s18.9-42.2,42.2-42.2S1151,106.3,1151,129.6z"/>
	<polygon class="st0" points="1042.1,87.4 1052.8,87.4 1052.8,171.9 1042.1,171.9 1042.1,87.4 	"/>
	<path class="st0" d="M295.1,119c14-6.2,23.7-19.6,23.7-35c0-21.4-18.7-38.8-41.7-38.8h-59v126.6h17.4v-49.1h41.6c0.2,0,0.4,0,0.5,0
		l22.8,49.1h19.2L295.1,119z M287.9,103.5c-2.9,1.2-6.1,1.9-9.5,1.9h-42.9V62.6h42.9c12.7,0,22.9,9.6,22.9,21.4
		C301.3,92.7,295.8,100.1,287.9,103.5z"/>
	<polygon class="st0" points="818.4,45.2 835.8,45.2 835.8,171.9 818.4,171.9 818.4,45.2 	"/>
	<path class="st0" d="M780.8,108.6c0,18.1-7.6,34.4-19.7,45.9c-0.9,0.9-1.8,1.7-2.8,2.5l-7.7-16.6c7.9-8.3,12.8-19.5,12.8-31.8
		c0-25.4-20.6-45.9-45.9-45.9H689v91.8h28.5c6.6,0,12.9-1.4,18.6-3.9l7.3,15.8c-7.9,3.6-16.7,5.6-26,5.6h-45.9V45.2h45.9
		c16.9,0,32.3,6.6,43.6,17.4C773.2,74.2,780.8,90.5,780.8,108.6z"/>
	<path class="st0" d="M457.7,135.7l8.1,17.3c-11.5,11.7-27.5,18.9-45.1,18.9c-35,0-63.3-28.3-63.3-63.3c0-35,28.3-63.3,63.3-63.3
		c17.7,0,33.7,7.2,45.1,18.9l-8.1,17.3c-8.4-11.4-21.8-18.8-37.1-18.8c-25.4,0-45.9,20.6-45.9,45.9c0,25.4,20.6,45.9,45.9,45.9
		C435.9,154.5,449.3,147.1,457.7,135.7z"/>
	<polygon class="st0" points="180.6,171.9 161.3,171.9 115.3,73.5 69.2,171.9 50,171.9 105.7,52.9 109.3,45.2 121.3,45.2 
		124.9,52.9 	"/>
	<polygon class="st0" points="634,171.9 614.8,171.9 568.7,73.5 522.6,171.9 503.4,171.9 559.1,52.9 562.7,45.2 574.7,45.2 
		578.3,52.9 	"/>
	<polygon class="st0" points="1004,171.9 984.8,171.9 938.7,73.5 892.7,171.9 873.4,171.9 929.1,52.9 932.7,45.2 944.7,45.2 
		948.3,52.9 	"/>
	<polygon class="st0" points="1017.7,161.2 1028.4,161.2 1028.4,171.9 1017.7,171.9 1017.7,161.2 	"/>
</g>
</svg>
