<?xml version="1.0" encoding="utf-8"?>
<!-- Generator: Adobe Illustrator 23.0.1, SVG Export Plug-In . SVG Version: 6.00 Build 0)  -->
<svg version="1.1" id="Layer_1" xmlns="http://www.w3.org/2000/svg" xmlns:xlink="http://www.w3.org/1999/xlink" x="0px" y="0px"
	 viewBox="0 0 215 45" style="enable-background:new 0 0 215 45;" xml:space="preserve">
<style type="text/css">
	.st0{fill-rule:evenodd;clip-rule:evenodd;fill:#D8DDDF;}
	.st1{fill-rule:evenodd;clip-rule:evenodd;fill:#1EF3BE;}
	.st2{fill-rule:evenodd;clip-rule:evenodd;fill:#4E595B;}
	.st3{fill-rule:evenodd;clip-rule:evenodd;fill:#2F3637;}
	.st4{fill-rule:evenodd;clip-rule:evenodd;fill:#FFFFFF;}
</style>
<g id="Arc_x5F_Horz_2_">
	<g>
		<polygon class="st0" points="50.94,44.79 32.81,25.55 27.84,28.48 23.17,18.38 0.11,44.76 25.52,-0.07 		"/>
		<polygon class="st1" points="27.84,28.48 0.04,44.89 0.11,44.76 23.17,18.38 		"/>
		<polygon class="st2" points="51.02,44.93 35.45,44.93 27.84,28.48 32.81,25.55 50.94,44.79 		"/>
		<polygon class="st3" points="35.45,44.93 0.01,44.93 0.04,44.89 27.84,28.48 		"/>
	</g>
	<g>
		<path class="st4" d="M100.34,27.19c2.26-1.01,3.82-3.15,3.82-5.64c0-3.45-3.01-6.25-6.72-6.25h-9.51v20.41h2.81V27.8h6.7
			c0.03,0,0.06,0,0.09,0l3.68,7.91h3.1L100.34,27.19z M99.18,24.69c-0.47,0.2-0.99,0.31-1.53,0.31h-6.92v-6.89h6.92
			c2.04,0,3.7,1.54,3.7,3.44C101.34,22.94,100.45,24.14,99.18,24.69z"/>
		<polygon class="st4" points="184.69,15.3 187.49,15.3 187.49,35.71 184.69,35.71 184.69,15.3 		"/>
		<path class="st4" d="M178.63,25.51c0,2.91-1.22,5.54-3.18,7.4c-0.15,0.14-0.29,0.27-0.45,0.4l-1.24-2.68
			c1.28-1.33,2.06-3.14,2.06-5.13c0-4.09-3.31-7.4-7.4-7.4h-4.59v14.8h4.59c1.07,0,2.09-0.23,3-0.63l1.18,2.55
			c-1.28,0.58-2.69,0.9-4.19,0.9h-7.4V15.3h7.4c2.72,0,5.2,1.07,7.03,2.81C177.41,19.97,178.63,22.59,178.63,25.51z"/>
		<path class="st4" d="M126.54,29.88l1.3,2.79c-1.85,1.88-4.43,3.05-7.27,3.05c-5.64,0-10.21-4.57-10.21-10.21
			c0-5.64,4.57-10.21,10.21-10.21c2.85,0,5.43,1.17,7.28,3.05l-1.3,2.79c-1.35-1.84-3.52-3.03-5.97-3.03c-4.09,0-7.4,3.31-7.4,7.4
			c0,4.09,3.31,7.4,7.4,7.4C123.02,32.91,125.19,31.72,126.54,29.88z"/>
		<polygon class="st4" points="81.87,35.71 78.77,35.71 71.35,19.85 63.92,35.71 60.82,35.71 69.8,16.54 70.38,15.3 72.32,15.3 
			72.9,16.54 		"/>
		<polygon class="st4" points="154.96,35.71 151.86,35.71 144.43,19.85 137.01,35.71 133.91,35.71 142.89,16.54 143.47,15.3 
			145.4,15.3 145.98,16.54 		"/>
		<polygon class="st4" points="214.6,35.71 211.5,35.71 204.08,19.85 196.65,35.71 193.56,35.71 202.53,16.54 203.11,15.3 
			205.05,15.3 205.63,16.54 		"/>
	</g>
</g>
</svg>
